{"accessors":[{"bufferView":2,"componentType":5126,"count":35240,"max":[1.3394320011138916,1.3988724946975708,1.416424036026001],"min":[-1.3898166418075562,-0.6025237441062927,-1.3562356233596802],"type":"VEC3"},{"bufferView":2,"byteOffset":422880,"componentType":5126,"count":35240,"max":[0.9997044801712036,0.9999975562095642,0.9993695020675659],"min":[-0.9999220967292786,-0.9999945759773254,-0.9993265271186829],"type":"VEC3"},{"bufferView":1,"componentType":5126,"count":35240,"max":[1.000000238418579,0.5],"min":[0,-2.384185791015625e-7],"type":"VEC2"},{"bufferView":0,"componentType":5125,"count":205170,"type":"SCALAR"},{"bufferView":2,"byteOffset":845760,"componentType":5126,"count":32997,"max":[0.9848098754882812,1.6117714643478394,1.0436302423477173],"min":[-1.0056359767913818,0.8207129240036011,-0.8638226389884949],"type":"VEC3"},{"bufferView":2,"byteOffset":1241724,"componentType":5126,"count":32997,"max":[0.9997443556785583,0.9996753334999084,0.9999775290489197],"min":[-0.9998950958251953,-0.99997478723526,-0.9999281764030457],"type":"VEC3"},{"bufferView":1,"byteOffset":281920,"componentType":5126,"count":32997,"max":[0,1],"min":[0,1],"type":"VEC2"},{"bufferView":0,"byteOffset":820680,"componentType":5125,"count":196050,"type":"SCALAR"}],"asset":{"extras":{"author":"yezenzeynberekat (https://sketchfab.com/zeynith)","license":"CC-BY-4.0 (http://creativecommons.org/licenses/by/4.0/)","source":"https://sketchfab.com/3d-models/cookiebiscuit-0d74f7e34a57472db96bb95f40a32dc2","title":"Cookie/biscuit"},"generator":"Sketchfab-15.37.0","version":"2.0"},"bufferViews":[{"buffer":0,"byteLength":1604880,"name":"floatBufferViews","target":34963},{"buffer":0,"byteLength":545896,"byteOffset":1604880,"byteStride":8,"name":"floatBufferViews","target":34962},{"buffer":0,"byteLength":1637688,"byteOffset":2150776,"byteStride":12,"name":"floatBufferViews","target":34962}],"buffers":[{"byteLength":3788464,"uri":"scene.bin"}],"materials":[{"doubleSided":true,"name":"Material.001","pbrMetallicRoughness":{"baseColorFactor":[0.45726080334939545,0.09862715425043538,0,1],"metallicFactor":0,"roughnessFactor":0.5}},{"doubleSided":true,"name":"Material.002","pbrMetallicRoughness":{"baseColorFactor":[0.20791599999999988,0.019969299999999992,0,1],"metallicFactor":0,"roughnessFactor":0.5}}],"meshes":[{"name":"Object_0","primitives":[{"attributes":{"NORMAL":1,"POSITION":0,"TEXCOORD_0":2},"indices":3,"material":0,"mode":4}]},{"name":"Object_1","primitives":[{"attributes":{"NORMAL":5,"POSITION":4,"TEXCOORD_0":6},"indices":7,"material":1,"mode":4}]}],"nodes":[{"children":[1],"matrix":[2.220446049250313e-16,2.220446049250313e-16,-1,0,-1,4.930380657631324e-32,-2.220446049250313e-16,0,0,1,2.220446049250313e-16,0,0,0,0,1],"name":"Sketchfab_model"},{"children":[2],"name":"root"},{"children":[3],"matrix":[1,0,0,0,0,2.220446049250313e-16,1,0,0,-1,2.220446049250313e-16,0,0,0,0,1],"name":"GLTF_SceneRootNode"},{"children":[4,5],"matrix":[0.40751728415489197,0,0,0,0,0.16234274208545685,0,0,0,0,0.4118371903896332,0,0,0,0,1],"name":"Sphere_0"},{"mesh":0,"name":"Object_4"},{"mesh":1,"name":"Object_5"}],"scene":0,"scenes":[{"name":"Sketchfab_Scene","nodes":[0]}]}